<?xml version="1.0" standalone="no"?>
<!DOCTYPE svg PUBLIC "-//W3C//DTD SVG 20010904//EN"
 "http://www.w3.org/TR/2001/REC-SVG-20010904/DTD/svg10.dtd">
<svg version="1.0" xmlns="http://www.w3.org/2000/svg"
 width="512.000000pt" height="512.000000pt" viewBox="0 0 512.000000 512.000000"
 preserveAspectRatio="xMidYMid meet">

<g transform="translate(0.000000,512.000000) scale(0.100000,-0.100000)"
fill="#000000" stroke="none">
<path d="M0 2560 l0 -2560 2560 0 2560 0 0 2560 0 2560 -2560 0 -2560 0 0
-2560z m2390 515 l0 -115 65 0 65 0 0 93 c0 59 -4 97 -12 105 -9 9 1 12 47 12
46 0 56 -3 47 -12 -9 -9 -12 -138 -12 -518 0 -559 1 -564 63 -656 46 -69 111
-106 200 -115 l72 -7 -81 2 c-98 3 -157 28 -227 98 -93 93 -92 83 -95 561 l-3
417 -65 0 -65 0 3 -492 3 -493 24 -53 c26 -57 76 -108 117 -118 58 -15 137 6
202 52 12 9 22 13 22 8 0 -15 -66 -55 -117 -70 -86 -27 -179 -4 -253 62 -79
72 -83 88 -91 359 -4 132 -7 354 -8 493 l-1 252 -30 0 c-16 0 -30 5 -30 10 0
6 14 10 30 10 l30 0 0 88 c0 48 4 92 8 98 9 14 63 43 80 44 9 0 12 -29 12
-115z m814 88 c-5 -5 -11 -11 -14 -15 -3 -3 -14 0 -24 8 -19 13 -18 14 14 14
18 0 29 -3 24 -7z m-64 -1138 c0 -3 -21 -29 -47 -56 -42 -45 -108 -90 -130
-89 -4 1 13 12 38 25 26 13 66 47 90 74 45 51 49 55 49 46z m-1250 -455 c0 -5
-4 -10 -10 -10 -5 0 -10 -13 -10 -29 0 -17 -4 -33 -10 -36 -6 -4 -10 7 -10 25
0 18 -6 33 -15 36 -27 11 -16 24 20 24 19 0 35 -4 35 -10z m160 0 c0 -5 -8
-11 -17 -11 -17 -1 -17 -2 0 -6 21 -5 23 -23 2 -23 -8 0 -15 -4 -15 -10 0 -5
10 -10 22 -10 16 0 19 -3 11 -11 -6 -6 -21 -9 -34 -7 -18 2 -25 10 -27 31 -2
16 -1 35 2 43 6 16 56 19 56 4z m139 -17 l13 -27 16 27 c24 38 32 34 32 -19 0
-27 -4 -43 -10 -39 -5 3 -10 14 -10 23 0 14 -2 13 -13 -3 -10 -13 -16 -15 -21
-6 -6 9 -12 7 -22 -6 -12 -16 -13 -13 -14 30 0 53 11 60 29 20z m239 0 c2 -16
-4 -26 -22 -35 -14 -6 -26 -15 -26 -20 0 -5 -4 -6 -10 -3 -5 3 -10 24 -10 46
0 39 1 40 33 37 24 -2 33 -8 35 -25z m132 -20 c0 -14 6 -23 15 -23 8 0 15 -5
15 -11 0 -6 -12 -9 -27 -7 -31 3 -39 23 -28 66 5 20 8 23 16 11 5 -7 9 -24 9
-36z m195 17 c8 -16 15 -36 15 -45 0 -13 -3 -13 -20 -3 -16 10 -24 10 -40 0
-24 -15 -25 -6 -5 42 18 44 30 45 50 6z m175 20 c0 -5 -4 -10 -10 -10 -5 0
-10 -16 -10 -35 0 -19 -4 -35 -10 -35 -5 0 -10 16 -10 35 0 19 -4 35 -10 35
-5 0 -10 5 -10 10 0 6 14 10 30 10 17 0 30 -4 30 -10z m160 0 c0 -5 -10 -11
-22 -11 l-23 -2 23 -4 c12 -2 22 -8 22 -13 0 -4 -10 -11 -22 -15 -22 -7 -21
-8 7 -15 24 -5 27 -8 13 -14 -30 -14 -53 -2 -56 27 -2 16 -1 35 2 43 6 16 56
19 56 4z m260 -31 c0 -41 24 -33 28 9 2 18 8 32 13 32 16 0 6 -72 -12 -83 -29
-18 -49 -1 -49 43 0 25 4 39 10 35 6 -3 10 -20 10 -36z m189 19 l14 -22 8 22
c12 32 29 18 29 -22 0 -44 -9 -50 -37 -24 -19 18 -23 19 -23 5 0 -9 -4 -19
-10 -22 -6 -4 -10 12 -10 39 0 51 8 57 29 24z m225 6 c9 -8 16 -22 16 -29 0
-7 -7 -21 -16 -29 -30 -30 -74 -13 -74 29 0 42 44 59 74 29z"/>
<path d="M2385 1550 c-3 -5 1 -10 9 -10 9 0 16 5 16 10 0 6 -4 10 -9 10 -6 0
-13 -4 -16 -10z"/>
<path d="M3714 1545 c-4 -9 -2 -21 3 -26 14 -14 45 1 41 20 -4 22 -37 26 -44
6z"/>
</g>
</svg>
